<?xml version="1.0" standalone="no"?>
<!DOCTYPE svg PUBLIC "-//W3C//DTD SVG 20010904//EN"
 "http://www.w3.org/TR/2001/REC-SVG-20010904/DTD/svg10.dtd">
<svg version="1.0" xmlns="http://www.w3.org/2000/svg"
 width="100.000000pt" height="100.000000pt" viewBox="0 0 225.000000 225.000000"
 preserveAspectRatio="xMidYMid meet">
<metadata>
Created by potrace 1.16, written by Peter Selinger 2001-2019
</metadata>
<g transform="translate(0.000000,225.000000) scale(0.100000,-0.100000)"
fill="#7367f0" stroke="none">
<path d="M1116 1513 c-4 -28 -14 -60 -22 -70 -13 -17 -15 -17 -39 10 l-25 28
0 -25 c0 -51 -25 -44 -67 20 -7 11 -3 -6 8 -36 12 -30 24 -63 26 -72 4 -14 11
-16 32 -10 33 9 158 9 191 0 24 -7 27 -3 52 65 25 65 21 68 -16 13 -17 -26
-36 -12 -37 27 0 27 -2 29 -9 12 -4 -12 -15 -27 -24 -34 -24 -20 -37 -3 -51
66 l-12 58 -7 -52z"/>
<path d="M411 1370 c-2 -3 -6 -59 -10 -125 l-6 -120 -42 -3 -43 -3 -1 98 c-2
86 -3 92 -9 48 -5 -27 -9 -71 -9 -96 l-1 -46 -77 -7 c-42 -3 -93 -6 -115 -6
-21 0 -38 -4 -38 -10 0 -5 6 -10 14 -10 7 0 19 -6 25 -14 8 -10 44 -17 102
-22 l89 -7 0 -88 c0 -53 4 -89 10 -89 6 0 10 37 10 90 l0 90 40 0 39 0 3 -122
c4 -162 22 -163 26 -3 l3 120 29 17 c38 22 38 46 0 59 l-29 11 -4 121 c-1 67
-4 120 -6 117z"/>
<path d="M1876 1328 c-18 -29 -36 -125 -36 -198 0 -47 -4 -60 -25 -80 -31 -29
-42 -21 -54 44 -11 58 -15 62 -68 69 l-41 5 4 -32 c5 -31 -25 -96 -45 -96 -15
0 -30 25 -38 63 l-8 37 -35 -47 c-39 -53 -70 -68 -70 -33 0 50 68 115 99 95 6
-3 11 -1 11 4 0 19 -66 12 -101 -12 -45 -29 -74 -88 -59 -117 15 -28 58 -26
90 5 l27 26 17 -26 c36 -55 101 -20 123 65 15 56 39 51 45 -9 3 -28 11 -57 18
-66 16 -19 64 -19 80 0 20 24 30 17 30 -20 0 -24 5 -35 15 -35 11 0 15 11 15
37 l0 37 35 -41 c58 -68 135 -80 210 -33 19 12 44 35 57 52 l21 31 -45 -27
c-83 -49 -188 -45 -238 9 -22 23 -22 25 -4 31 57 18 76 29 85 46 23 42 -37 64
-86 32 l-25 -16 20 44 c29 66 42 135 30 158 -14 26 -36 25 -54 -2z"/>
<path d="M777 1289 c-41 -24 -62 -148 -37 -215 8 -21 8 -29 -2 -36 -33 -20
-62 3 -78 63 l-11 41 -30 -46 c-31 -49 -54 -65 -70 -49 -13 13 10 71 35 92 9
8 29 14 45 15 35 1 30 16 -6 16 -61 0 -133 -62 -133 -115 0 -48 52 -60 96 -21
l28 23 19 -23 c22 -28 80 -33 114 -9 18 13 22 13 33 0 15 -18 79 -20 115 -3
19 9 28 9 37 0 18 -18 73 -14 90 6 9 9 22 30 30 46 l15 29 14 -44 c11 -33 20
-45 37 -47 19 -3 26 4 40 37 9 23 20 41 23 41 3 0 10 -17 15 -37 7 -31 13 -38
34 -38 19 0 29 9 44 40 l20 39 9 -29 c5 -17 14 -36 20 -42 13 -18 52 -16 68 3
11 14 10 15 -6 12 -16 -2 -23 6 -33 42 -16 56 -25 73 -40 78 -11 3 -16 -5 -42
-75 -15 -41 -24 -36 -39 21 -19 75 -47 70 -70 -11 -15 -54 -29 -55 -37 -3 -8
47 -26 76 -43 66 -6 -4 -18 -24 -27 -44 -27 -66 -66 -91 -93 -58 -8 10 -5 26
14 69 60 130 -1 244 -68 129 -18 -30 -22 -90 -14 -187 2 -26 -2 -30 -27 -33
-18 -2 -36 4 -51 18 l-22 21 20 41 c25 50 35 151 17 173 -15 18 -28 18 -53 4z"/>
</g>
</svg>
